<svg xmlns="http://www.w3.org/2000/svg" viewBox="0 0 440 115" width="440" height="115">
  <!-- shadow: COW immutable snapshot ghost -->
  <g transform="skewX(3) translate(12, 8)" opacity="0.20">
    <rect x="20" y="10" width="122" height="16" rx="3" fill="#1d4ed8"/>
    <rect x="14" y="47" width="74" height="16" rx="3" fill="#2563eb"/>
    <rect x="96" y="47" width="52" height="16" rx="3" fill="#2563eb"/>
    <rect x="10" y="84" width="22" height="16" rx="3" fill="#93bbfd"/>
    <rect x="40" y="84" width="22" height="16" rx="3" fill="#93bbfd"/>
    <rect x="70" y="84" width="22" height="16" rx="3" fill="#93bbfd"/>
    <rect x="100" y="84" width="22" height="16" rx="3" fill="#93bbfd"/>
    <rect x="130" y="84" width="22" height="16" rx="3" fill="#93bbfd"/>
    <line x1="81" y1="26" x2="51" y2="47" stroke="#1d4ed8" stroke-width="1.5" stroke-linecap="round"/>
    <line x1="81" y1="26" x2="122" y2="47" stroke="#1d4ed8" stroke-width="1.5" stroke-linecap="round"/>
    <line x1="51" y1="63" x2="21" y2="84" stroke="#2563eb" stroke-width="1.5" stroke-linecap="round"/>
    <line x1="51" y1="63" x2="51" y2="84" stroke="#2563eb" stroke-width="1.5" stroke-linecap="round"/>
    <line x1="51" y1="63" x2="81" y2="84" stroke="#2563eb" stroke-width="1.5" stroke-linecap="round"/>
    <line x1="122" y1="63" x2="111" y2="84" stroke="#2563eb" stroke-width="1.5" stroke-linecap="round"/>
    <line x1="122" y1="63" x2="141" y2="84" stroke="#2563eb" stroke-width="1.5" stroke-linecap="round"/>
  </g>

  <!-- main tree -->
  <g transform="skewX(3)">
    <line x1="81" y1="26" x2="51" y2="47" stroke="#2563eb" stroke-width="1.5" stroke-linecap="round"/>
    <line x1="81" y1="26" x2="122" y2="47" stroke="#60a5fa" stroke-width="1.5" stroke-linecap="round"/>
    <line x1="51" y1="63" x2="21" y2="84" stroke="#2563eb" stroke-width="1.5" stroke-linecap="round"/>
    <line x1="51" y1="63" x2="51" y2="84" stroke="#3b82f6" stroke-width="1.5" stroke-linecap="round"/>
    <line x1="51" y1="63" x2="81" y2="84" stroke="#60a5fa" stroke-width="1.5" stroke-linecap="round"/>
    <line x1="122" y1="63" x2="111" y2="84" stroke="#3b82f6" stroke-width="1.5" stroke-linecap="round"/>
    <line x1="122" y1="63" x2="141" y2="84" stroke="#60a5fa" stroke-width="1.5" stroke-linecap="round"/>
    <rect x="20" y="10" width="122" height="16" rx="3" fill="#1d4ed8"/>
    <rect x="14" y="47" width="74" height="16" rx="3" fill="#2563eb"/>
    <rect x="96" y="47" width="52" height="16" rx="3" fill="#3b82f6"/>
    <rect x="10" y="84" width="22" height="16" rx="3" fill="#93bbfd"/>
    <rect x="40" y="84" width="22" height="16" rx="3" fill="#93bbfd"/>
    <rect x="70" y="84" width="22" height="16" rx="3" fill="#93bbfd"/>
    <rect x="100" y="84" width="22" height="16" rx="3" fill="#93bbfd"/>
    <rect x="130" y="84" width="22" height="16" rx="3" fill="#93bbfd"/>
  </g>

  <text x="185" y="61" font-size="32" font-weight="600" fill="#1e293b" font-family="-apple-system, BlinkMacSystemFont, 'Segoe UI', Helvetica, Arial, sans-serif">piecetab</text>
</svg>
